<svg width="181" height="181" viewBox="0 0 181 181" fill="none" xmlns="http://www.w3.org/2000/svg">
<path d="M180.186 114.127V0.884277C81.4344 1.85325 1.57511 81.5895 0.604645 180.189H114.022C114.974 144.12 144.061 115.078 180.186 114.127Z" fill="#678DC9"/>
<g style="mix-blend-mode:screen">
<path d="M120.063 111.347C119.555 111.302 118.856 111.175 118.24 111.003C117.596 110.822 116.317 110.478 116.19 109.681C116.099 109.11 116.652 108.567 116.952 108.141C117.351 107.562 117.641 106.892 117.741 106.194C117.904 105.108 117.605 104.012 116.97 103.115C116.734 102.78 116.453 102.472 116.163 102.192C117.65 100.435 118.421 98.2614 117.85 95.9431C117.414 94.1591 116.326 92.5653 115.056 91.2612C114.775 90.9715 114.476 90.6817 114.149 90.4191C112.616 89.1331 111.093 87.8382 109.56 86.5522C106.168 83.6906 102.776 80.829 99.3835 77.9673C95.9098 75.0423 92.4451 72.1173 88.9714 69.1923C87.2118 67.7071 85.4705 66.2129 83.7018 64.7459C81.5342 62.9528 78.4414 62.817 76.2193 64.6191C75.0493 65.57 74.0335 66.7563 72.9723 67.8158C71.4305 69.3553 69.8886 70.8948 68.3467 72.4343C67.9386 72.8418 67.5032 73.2402 67.1495 73.7111C66.1791 74.979 65.78 76.5999 66.0339 78.1756C66.2516 79.534 67.0044 80.5845 67.866 81.5987C68.637 82.5043 69.3988 83.4099 70.1698 84.3245C72.8816 87.5303 75.5935 90.7451 78.3144 93.9508C81.3346 97.5188 84.3549 101.096 87.3751 104.664C89.1981 106.819 91.0121 108.965 92.8351 111.121C92.9258 111.229 93.0165 111.329 93.1072 111.438C94.5402 113.131 96.3814 114.634 98.4856 115.15C101.089 120.059 103.701 124.976 106.304 129.884C106.422 130.111 106.53 130.337 106.657 130.554C107.419 131.867 108.889 132.266 110.258 131.704C110.929 131.387 111.61 131.098 112.272 130.763C113.433 130.174 114.086 128.861 113.732 127.584C113.487 126.697 112.925 125.827 112.526 125.012C110.83 121.553 109.133 118.094 107.437 114.634C107.038 113.828 106.639 113.013 106.249 112.207C106.521 111.918 106.784 111.619 107.029 111.32C107.12 111.211 107.202 111.093 107.292 110.985C108.49 113.185 110.421 114.806 113.061 114.987C115.174 115.132 117.314 114.39 119.156 113.403C119.582 113.176 120.008 112.932 120.407 112.651C120.979 112.244 120.779 111.41 120.063 111.356V111.347ZM90.3772 106.058C87.5928 102.762 84.8084 99.4749 82.0239 96.1786C79.1307 92.7555 76.2284 89.3233 73.3351 85.9002C71.7207 83.9895 70.0972 82.0877 68.4918 80.1679C67.077 78.4835 66.9319 76.0022 68.4465 74.3179C69.4079 73.2493 70.4872 72.2622 71.5121 71.248C73.0177 69.7447 74.5232 68.2414 76.0288 66.7382C76.3644 66.4031 76.7 66.0318 77.0628 65.7239C78.2872 64.6825 80.0739 64.4108 81.5614 65.0176C82.3505 65.3345 82.9581 65.9231 83.6021 66.4574C84.5907 67.2906 85.5702 68.1146 86.5588 68.9478C89.7877 71.6736 93.0165 74.3903 96.2453 77.1161C99.7191 80.0411 103.193 82.9752 106.667 85.9002C108.662 87.5846 110.657 89.2599 112.643 90.9443C110.557 93.0271 108.462 95.119 106.376 97.2018C102.785 100.788 99.193 104.374 95.6014 107.96C94.9484 108.612 94.3044 109.255 93.6514 109.907C92.563 108.621 91.4837 107.335 90.3953 106.058H90.3772ZM112.235 127.566C112.598 128.336 112.426 129.124 111.619 129.531C110.947 129.875 110.249 130.165 109.569 130.491C108.326 131.007 107.8 129.757 107.356 128.897C106.73 127.72 106.104 126.543 105.478 125.365C103.891 122.377 102.304 119.379 100.717 116.391C100.526 116.038 100.345 115.685 100.154 115.332C100.635 115.332 101.116 115.268 101.615 115.141C102.948 114.806 104.145 114.1 105.197 113.203C107.555 117.985 109.986 122.739 112.235 127.566ZM110.848 112.932C109.46 112.126 108.607 110.722 108.009 109.273C107.791 108.757 107.047 108.866 106.803 109.273C106.267 110.161 105.633 110.912 104.825 111.664C104.662 111.818 104.49 111.972 104.317 112.117C104.317 112.117 104.299 112.135 104.29 112.135C103.891 112.47 103.474 112.769 103.03 113.031C102.966 113.068 102.903 113.104 102.839 113.14C102.685 113.222 102.531 113.303 102.376 113.376C102.231 113.439 102.077 113.502 101.932 113.557C101.85 113.593 101.76 113.62 101.678 113.656C101.488 113.72 101.288 113.765 101.089 113.81C101.034 113.819 100.98 113.837 100.925 113.846C100.726 113.883 100.526 113.901 100.318 113.919C100.254 113.919 100.191 113.928 100.127 113.937C99.9367 113.937 99.7463 113.937 99.5649 113.919C99.4832 113.919 99.3925 113.91 99.3109 113.901C99.066 113.874 98.8211 113.828 98.5763 113.756C96.9709 113.303 95.6558 112.189 94.5493 110.967C96.6625 108.857 98.7758 106.747 100.889 104.637C104.481 101.051 108.072 97.4645 111.664 93.8784C112.335 93.2083 113.015 92.5291 113.686 91.8589C114.548 92.6468 115.292 93.5976 115.836 94.6028C116.371 95.599 116.707 96.7038 116.652 97.8448C116.58 99.3753 115.727 100.697 114.684 101.757C114.349 102.092 114.466 102.581 114.82 102.835C114.82 102.835 114.802 102.825 114.811 102.835C114.811 102.835 114.829 102.844 114.829 102.853C114.92 102.925 115.011 102.998 115.092 103.079C115.373 103.333 115.627 103.613 115.836 103.93C116.453 104.863 116.562 105.932 116.045 106.937C115.455 108.087 114.312 109.11 115.011 110.505C115.491 111.474 116.616 111.972 117.596 112.271C117.768 112.325 117.958 112.361 118.14 112.407C115.872 113.575 113.052 114.209 110.857 112.941L110.848 112.932Z" fill="#F1F1F1"/>
</g>
</svg>
