<svg width="181" height="181" viewBox="0 0 181 181" fill="none" xmlns="http://www.w3.org/2000/svg">
<path d="M66.9779 180.189H180.395C179.425 81.5895 99.5656 1.85325 0.81395 0.884277V114.127C36.9388 115.078 66.0256 144.12 66.9779 180.189Z" fill="#009640"/>
<g style="mix-blend-mode:screen">
<path d="M125.342 98.1256C124.48 95.4089 123.047 92.9095 121.179 90.7542C120.254 89.6947 119.22 88.7257 118.231 87.7296C117.424 86.9236 116.626 86.1267 115.819 85.3207C111.982 81.4901 108.146 77.6595 104.309 73.8289C101.126 70.6503 97.9421 67.4718 94.7677 64.3022C93.4707 63.0072 92.21 61.6761 90.8677 60.4354C87.2035 57.0667 81.8977 54.5672 76.8004 55.0653C75.8209 55.1559 73.0909 55.4728 73.8619 57.0304C73.8619 57.0395 73.8709 57.0576 73.88 57.0667C73.8981 57.0938 73.8981 57.121 73.9163 57.1482C73.9344 57.1753 73.9525 57.1844 73.9707 57.2115C73.9888 57.2387 73.9979 57.2659 74.0251 57.293C75.7121 58.9774 77.399 60.6618 79.086 62.3462C82.2876 65.5429 85.4802 68.7305 88.6818 71.9272C90.0877 73.3309 91.5026 74.7435 92.9084 76.1472C90.9674 75.2054 88.9176 74.5262 86.7681 74.2274C83.8204 73.8199 80.8909 74.1459 78.0884 74.979C75.567 71.891 71.803 68.6762 67.5402 69.6814C64.9644 70.2881 62.7332 72.389 61.3909 74.5987C60.3025 76.3917 59.9488 78.5289 60.7107 80.5121C61.3002 82.0425 62.3614 83.3284 63.6039 84.388C63.5405 84.4514 63.486 84.5057 63.4225 84.5691C62.6244 85.4113 61.8353 86.2535 61.9442 87.5122C62.0077 88.2548 62.3795 88.8706 62.8874 89.3868C63.5949 90.1022 64.3114 90.8085 65.0279 91.5239C68.1388 94.6301 71.2588 97.7453 74.3698 100.851C78.0884 104.564 81.807 108.277 85.5256 111.99C87.8111 114.272 90.0967 116.554 92.3914 118.845C92.5002 118.954 92.6181 119.072 92.727 119.18C94.0421 120.376 95.6565 120.113 96.89 118.99C97.4251 118.501 97.9512 117.994 98.4681 117.469C99.8195 116.101 101.071 114.643 102.223 113.104C105.026 109.364 107.202 105.026 107.792 100.344C108.3 96.3507 107.493 92.4929 105.778 88.9883C108.626 91.8318 111.465 94.6663 114.313 97.5098L121.941 105.126C122.576 105.76 123.183 106.421 123.836 107.018C124.544 107.67 125.396 107.381 125.705 106.502C125.913 105.914 126.031 105.298 126.104 104.673C126.376 102.472 126.004 100.218 125.342 98.1256ZM62.2072 75.9661C63.1777 73.9376 65.1367 71.9 67.3044 71.1665C69.1546 70.5417 71.0411 70.9854 72.6828 71.9453C74.2065 72.8418 75.4944 74.0915 76.6462 75.4318C76.5556 75.468 76.4649 75.4952 76.3832 75.5314C76.1928 75.6038 76.0023 75.6672 75.8118 75.7397C75.6577 75.8031 75.5035 75.8755 75.3402 75.948C74.8686 76.1472 74.397 76.3555 73.9344 76.5909C73.8437 76.6362 73.7621 76.6815 73.6804 76.7268C73.3086 76.9169 72.9277 77.1071 72.5558 77.3064C72.4198 77.3788 72.2928 77.4603 72.1567 77.5418C72.1023 77.578 72.0479 77.6052 71.9844 77.6414C71.4674 77.9403 70.9595 78.2572 70.4607 78.5923C70.4153 78.6194 70.37 78.6557 70.3246 78.6828C69.2181 79.4163 68.157 80.2223 67.1321 81.0735C67.123 81.0826 67.1049 81.0917 67.0958 81.1007C66.2251 81.8252 65.3816 82.5949 64.5653 83.3828C62.3977 81.5082 60.8195 78.8458 62.1981 75.9661H62.2072ZM103.284 108.974C101.443 112.153 99.0667 115.006 96.4002 117.523C95.6474 118.239 94.7223 119.099 93.7065 118.175C92.1919 116.663 90.6772 115.151 89.1716 113.647C85.8067 110.288 82.4328 106.919 79.0679 103.559C75.6577 100.154 72.2383 96.7401 68.8281 93.3351C67.1411 91.6507 65.3635 90.0297 63.7581 88.2729C62.697 87.1047 64.0121 85.8007 65.0279 84.8679C65.0551 84.8498 65.0914 84.8317 65.1186 84.8046C65.3725 84.551 65.6356 84.3155 65.8895 84.062C66.3067 83.6635 66.7239 83.2741 67.1593 82.8938C67.3588 82.7217 67.5493 82.5496 67.7488 82.3776C68.3565 81.8614 68.9732 81.3633 69.6081 80.8924C69.8712 80.7023 70.1342 80.5121 70.3972 80.331C70.8779 79.9869 71.3767 79.6609 71.8756 79.3439C72.0842 79.2081 72.2928 79.0722 72.5014 78.9455C72.7463 78.8006 72.9911 78.6647 73.2451 78.5198C73.5535 78.3478 73.8618 78.1757 74.1702 78.0127C74.3607 77.9131 74.5512 77.8225 74.7416 77.732C75.1407 77.5418 75.5397 77.3516 75.9388 77.1796C76.0839 77.1162 76.22 77.0618 76.3651 76.9984C76.8004 76.8173 77.2449 76.6543 77.6983 76.5094C79.0044 76.0657 80.3467 75.7306 81.7253 75.5495C87.276 74.8341 92.6 76.8536 96.8809 80.331C97.5521 80.8743 98.2142 81.4629 98.8491 82.0697C99.2572 82.4772 99.6653 82.8847 100.073 83.2922C103.339 86.7334 105.86 90.9625 106.431 95.6896C106.994 100.353 105.597 104.963 103.275 108.974H103.284ZM123.655 104.872C123.51 104.736 123.374 104.591 123.238 104.456C121.016 102.237 118.803 100.027 116.58 97.8087C112.671 93.9056 108.762 90.0026 104.853 86.0995C103.556 84.8045 102.259 83.5096 100.962 82.2146C100.482 81.6984 99.9828 81.2003 99.4658 80.7204C96.9444 78.2029 94.423 75.6854 91.9016 73.1679C88.4642 69.7357 85.0176 66.2945 81.5802 62.8624C80.1835 61.4678 78.7958 60.0822 77.3991 58.6876C76.737 58.0265 76.0749 57.3655 75.4128 56.7044C75.7302 56.6139 76.0477 56.5505 76.3742 56.4961C77.2539 56.3603 78.1518 56.3694 79.0316 56.4418C81.6709 56.6682 84.2739 57.61 86.5504 58.9412C89.2714 60.5441 91.3846 62.8895 93.5976 65.0991C96.119 67.6166 98.6405 70.1342 101.162 72.6517C105.198 76.6815 109.243 80.7204 113.279 84.7502C114.195 85.6648 115.111 86.5795 116.027 87.4941C117.687 89.1513 119.483 90.7452 120.916 92.6106C122.63 94.8293 123.845 97.4193 124.453 100.163C124.843 101.929 124.988 103.84 124.517 105.615C124.517 105.624 124.498 105.66 124.489 105.687C124.453 105.651 124.408 105.615 124.371 105.588C124.127 105.343 123.891 105.108 123.646 104.863L123.655 104.872Z" fill="#F1F1F1"/>
</g>
<g style="mix-blend-mode:screen">
<path d="M79.4125 113.068C76.9456 112.434 74.2337 112.742 73.2451 115.404C72.7735 116.663 72.7553 118.148 73.0002 119.47C73.1635 120.348 74.5149 119.995 74.3425 119.117C74.2881 118.836 74.279 118.664 74.2518 118.257C74.2246 117.577 74.2519 116.889 74.4332 116.228C74.6146 115.549 74.9593 114.906 75.576 114.526C76.6009 113.892 77.9523 114.136 79.0498 114.417C79.9205 114.634 80.2742 113.294 79.4035 113.077L79.4125 113.068Z" fill="#F1F1F1"/>
</g>
<g style="mix-blend-mode:screen">
<path d="M65.6537 99.3302C65.427 98.4609 64.0846 98.8141 64.3114 99.6834C64.5926 100.77 64.8193 102.065 64.2298 103.088C63.8579 103.74 63.1958 104.103 62.4884 104.293C61.8444 104.465 61.1732 104.501 60.5021 104.474C60.0849 104.456 59.8853 104.438 59.5951 104.383C58.7244 104.22 58.3616 105.561 59.2414 105.724C60.5565 105.968 62.0439 105.95 63.3137 105.479C65.9802 104.492 66.2795 101.784 65.6537 99.3212V99.3302Z" fill="#F1F1F1"/>
</g>
<g style="mix-blend-mode:screen">
<path d="M73.3902 106.566C70.7963 106.004 67.8395 106.991 67.3951 109.907C67.1593 111.465 67.7216 113.692 65.6537 114.136C64.8918 114.308 64.0212 114.2 63.2774 113.955C62.4249 113.674 62.0712 115.024 62.9237 115.295C65.2002 116.038 68.03 115.44 68.5923 112.796C68.9642 111.066 68.2568 108.82 70.3791 108.042C71.2135 107.734 72.2837 107.743 73.0274 107.906C73.8981 108.096 74.2609 106.756 73.3812 106.566H73.3902Z" fill="#F1F1F1"/>
</g>
</svg>
