<svg width="181" height="181" viewBox="0 0 181 181" fill="none" xmlns="http://www.w3.org/2000/svg">
<path d="M114.022 0.811523H0.604645C1.57511 99.411 81.4344 179.147 180.186 180.116V66.8736C144.061 65.9227 114.974 36.8808 114.022 0.811523Z" fill="#E56D2B"/>
<g style="mix-blend-mode:screen">
<path d="M92.953 83.4817C90.6221 84.016 88.6358 85.8815 87.7923 88.082C87.0577 89.9928 87.3116 92.3926 89.2072 93.5246C91.4656 94.8739 94.3135 93.6061 96.0186 91.9579C97.5332 90.4003 98.6851 88.0005 97.896 85.8181C97.1523 83.7624 94.9665 83.0198 92.953 83.4817ZM95.0391 90.9708C93.8781 92.0938 92.1186 93.0627 90.4588 92.5647C88.926 92.1028 88.5542 90.4637 88.926 89.0691C89.3977 87.3123 90.8125 85.7819 92.4905 85.0846C93.8056 84.5412 95.6377 84.505 96.4267 85.9086C97.3881 87.6021 96.2363 89.7483 95.0391 90.9799V90.9708Z" fill="#F1F1F1"/>
</g>
<g style="mix-blend-mode:screen">
<path d="M134.239 73.4572C134.239 72.4701 133.812 71.5736 133.123 70.8763C131.182 68.8931 129.187 66.9461 127.228 64.99C123.863 61.6303 120.489 58.2616 117.124 54.9019C114.838 52.6198 112.562 50.3468 110.276 48.0648C108.997 46.7879 107.292 46.2717 105.614 47.2044C103.927 48.1372 102.286 49.1515 100.626 50.1204L100.544 50.1657C100.037 49.6586 99.5377 49.1515 99.0207 48.6534C98.3405 47.9923 97.4607 47.6029 96.4993 47.6935C95.157 47.8112 94.3407 48.8164 93.4609 49.7038C92.5812 50.5913 91.5563 51.3792 91.3749 52.6651C91.2298 53.6794 91.6016 54.6211 92.3091 55.3456C92.6628 55.7169 93.0346 56.0791 93.3974 56.4414C91.8193 58.4155 90.2502 60.3987 88.6721 62.3729C84.9353 67.0638 81.1895 71.7547 77.4528 76.4456L66.2788 90.464C65.0907 91.9491 63.9026 93.4433 62.7144 94.9285C62.143 95.653 61.3902 96.4136 60.9821 97.2468C60.1839 98.8768 60.5558 100.742 61.8074 102.028C62.1974 102.427 62.5965 102.816 62.9956 103.215C64.8821 105.098 66.7777 106.991 68.6642 108.874C72.0563 112.261 75.3939 115.721 78.8495 119.044C80.1737 120.321 82.1509 120.665 83.7926 119.759C84.1463 119.569 84.4546 119.298 84.7721 119.044C85.8333 118.202 86.8944 117.36 87.9556 116.518C92.2184 113.131 96.4721 109.744 100.735 106.366C105.306 102.735 109.877 99.1032 114.448 95.4628C114.566 95.3722 114.684 95.2726 114.802 95.1821L115.555 94.5844C118.539 92.2117 121.514 89.8482 124.498 87.4756C124.779 87.7563 125.069 88.0461 125.35 88.3268C125.45 88.4264 125.55 88.526 125.65 88.6256C126.937 89.8119 128.788 89.7939 130.057 88.5894C130.819 87.874 131.545 87.1133 132.28 86.3708C133.694 84.9218 133.431 82.993 132.08 81.6437L130.774 80.3396C131.617 78.8997 132.47 77.4508 133.313 76.0109C133.785 75.205 134.248 74.4353 134.257 73.4482L134.239 73.4572ZM107.247 99.4202C104.39 101.684 101.542 103.957 98.6851 106.221C98.1409 106.656 97.5967 107.081 97.0525 107.516C94.4132 104.881 91.783 102.255 89.1437 99.6194C84.7358 95.2183 80.3279 90.8172 75.92 86.4161C75.0584 85.5558 74.1877 84.6864 73.326 83.8261C76.4098 79.9593 79.4844 76.1015 82.5681 72.2347C83.7835 70.7042 85.0079 69.1738 86.2323 67.6434C89.2253 70.6318 92.2184 73.6202 95.2114 76.6086C100.263 81.6527 105.315 86.6968 110.376 91.7499C111.347 92.7189 112.308 93.6788 113.278 94.6478C111.274 96.2416 109.27 97.8354 107.265 99.4292L107.247 99.4202ZM83.4298 118.347C82.2688 119.18 80.7814 119.008 79.7837 118.021C79.3665 117.613 78.9584 117.197 78.5412 116.78C76.6819 114.924 74.8135 113.058 72.9542 111.202C69.5711 107.824 66.1246 104.491 62.796 101.059C61.8256 100.054 61.6532 98.587 62.4877 97.4279C62.6328 97.2287 62.796 97.0385 62.9502 96.8483C63.8663 95.6982 64.7823 94.5482 65.6984 93.4071C67.9567 90.5817 70.206 87.7472 72.4644 84.9128C75.0584 87.5027 77.6614 90.1018 80.2553 92.6917C84.6632 97.0929 89.0712 101.494 93.4791 105.895C94.3044 106.719 95.1388 107.552 95.9642 108.376C93.9779 109.961 91.9825 111.537 89.9963 113.122C87.8195 114.851 85.6972 116.717 83.4298 118.338V118.347ZM117.768 91.0616C116.634 91.9672 115.491 92.8638 114.358 93.7694C111.328 90.7447 108.299 87.7201 105.27 84.6955C100.218 79.6514 95.166 74.6073 90.1051 69.5541C89.0984 68.5489 88.1007 67.5529 87.0939 66.5477C87.2209 66.3847 87.357 66.2216 87.4839 66.0586C89.7786 63.1789 92.0732 60.2991 94.3679 57.4194C95.4653 58.5061 96.5718 59.5928 97.6602 60.6885C99.7916 62.8166 101.932 64.9538 104.063 67.0819C109.052 72.0626 114.031 77.0342 119.02 82.0149L120.353 83.3461C121.405 84.3966 122.457 85.4471 123.509 86.4975C121.595 88.0189 119.682 89.5403 117.768 91.0616ZM131.79 84.6321C131.645 85.0939 131.3 85.3928 130.973 85.7188C130.547 86.1444 130.121 86.57 129.695 86.9956C129.441 87.2492 129.196 87.548 128.906 87.7744C128.216 88.3178 127.264 88.2272 126.638 87.6477C125.26 86.2712 123.872 84.8856 122.493 83.5091C119.527 80.5479 116.553 77.5776 113.587 74.6163C112.09 73.1221 110.594 71.6279 109.097 70.1337C106.775 67.8154 104.453 65.4972 102.132 63.1789L100.989 62.0378C100.173 61.2228 99.3472 60.3988 98.5309 59.5838C97.2974 58.3522 96.0639 57.1206 94.8305 55.889C94.7307 55.7894 94.6309 55.6897 94.5312 55.5901C94.1049 55.1645 93.6514 54.7479 93.2432 54.3042C92.3544 53.3443 92.8079 52.321 93.606 51.5331C94.2953 50.8449 94.9484 50.0389 95.7102 49.4413C96.8802 48.5176 97.8416 49.4412 98.6307 50.22C99.066 50.6547 99.5014 51.0894 99.9458 51.5331C100.381 51.9678 100.817 52.4025 101.252 52.8372C104.136 55.7169 107.02 58.5966 109.904 61.4764C110.068 61.6394 110.24 61.8114 110.403 61.9744C114.013 65.5786 117.623 69.1829 121.233 72.7871C122.747 74.2994 124.262 75.8117 125.776 77.324C126.992 78.5375 128.198 79.7419 129.413 80.9554C129.441 80.9826 129.459 81.0007 129.486 81.0279C130.076 81.6165 130.674 82.2051 131.264 82.8028C131.753 83.3008 132.026 83.9348 131.799 84.6411L131.79 84.6321ZM132.488 74.6707C131.59 76.2373 130.665 77.7859 129.749 79.3434L125.813 75.4133L120.425 70.0341C118.62 68.232 116.816 66.4299 115.011 64.6278C111.528 61.1504 108.036 57.6639 104.553 54.1865C104.517 54.1503 104.481 54.114 104.444 54.0778C103.483 53.1179 102.522 52.1489 101.56 51.1799C102.83 50.4374 104.109 49.6948 105.379 48.9522C106.077 48.5447 106.775 48.0195 107.619 48.0919C108.236 48.1463 108.707 48.4632 109.133 48.8798C111.147 50.8721 113.151 52.8915 115.156 54.8928C118.403 58.1348 121.659 61.3858 124.906 64.6278C127.182 66.9008 129.459 69.1738 131.735 71.4468C131.89 71.6008 132.053 71.7547 132.207 71.9177C132.951 72.7146 133.014 73.747 132.488 74.6707Z" fill="#F1F1F1"/>
</g>
</svg>
