<svg width="181" height="181" viewBox="0 0 181 181" fill="none" xmlns="http://www.w3.org/2000/svg">
<path d="M66.9779 0.811523C66.0256 36.8808 36.9388 65.9227 0.81395 66.8736V180.116C99.5656 179.147 179.425 99.411 180.395 0.811523H66.9779Z" fill="#FFBC00"/>
<g style="mix-blend-mode:screen">
<path d="M121.469 99.3927C121.469 99.3927 121.487 99.3475 121.496 99.3203C121.587 99.112 121.66 98.9037 121.714 98.6864C121.714 98.6502 121.732 98.623 121.741 98.5868C121.786 98.3966 121.814 98.2155 121.832 98.0253C121.832 97.9529 121.85 97.8713 121.85 97.7989C121.85 97.6631 121.85 97.5273 121.85 97.3914C121.85 97.2647 121.841 97.1288 121.814 97.002C121.805 96.9295 121.786 96.8571 121.768 96.7847C121.732 96.6035 121.696 96.4315 121.632 96.2504C121.623 96.2232 121.605 96.196 121.596 96.1689C121.523 95.9606 121.433 95.7614 121.324 95.5621C121.306 95.5259 121.27 95.4897 121.251 95.4444C121.161 95.2814 121.07 95.1274 120.952 94.9735C120.725 94.6747 120.49 94.3849 120.254 94.0951L118.113 91.4055C117.642 90.8169 117.179 90.2283 116.717 89.6397C112.753 84.6499 108.799 79.6692 104.835 74.6795C104.753 74.5708 104.663 74.4621 104.581 74.3625C104.218 73.9097 103.856 73.4479 103.493 72.9951C100.89 69.7169 98.3774 66.3391 95.6656 63.1424C94.5046 61.775 92.5275 61.8202 91.2668 63.0066C90.9584 63.2963 90.6681 63.6042 90.3598 63.9121C88.9177 65.352 87.4665 66.801 86.0244 68.2408C85.3714 67.3081 84.7093 66.3844 84.0563 65.4516C81.7163 62.1463 79.3763 58.8409 77.0363 55.5355C76.61 54.9288 76.1565 54.3311 75.7484 53.7153C74.7416 52.203 75.7847 50.8265 76.5012 49.4772C78.433 45.8277 80.3558 42.1873 82.2877 38.5378C82.333 38.4473 82.3784 38.3657 82.4237 38.2752C82.8409 37.4873 81.6346 36.7991 81.2174 37.5869C79.4488 40.9376 77.6712 44.2882 75.9026 47.6298C75.4944 48.4086 75.0863 49.1784 74.6691 49.9572C74.3788 50.5096 74.0705 51.0529 73.9526 51.6778C73.6986 53.1357 74.3879 54.1862 75.1588 55.282C77.2812 58.2795 79.4035 61.2769 81.5258 64.2653C82.6958 65.9135 83.8658 67.5707 85.0358 69.2188C81.5439 72.7053 78.0612 76.1828 74.5693 79.6692C71.7123 76.1375 67.3498 74.0728 62.7514 74.3444C58.0623 74.6252 53.7451 77.2785 51.396 81.3536C49.1286 85.2929 48.9563 90.2011 50.8791 94.3034C52.8563 98.5143 56.9739 101.539 61.5814 102.182C66.8419 102.915 72.0116 100.597 75.0591 96.3138C76.4558 97.4186 77.8526 98.5234 79.2493 99.6282C82.1788 101.946 85.1174 104.274 88.047 106.592C90.9856 108.919 93.9242 111.247 96.8537 113.574C97.8605 114.371 98.8672 115.177 99.883 115.974C100.155 116.191 100.454 116.354 100.763 116.49C101.107 116.662 101.461 116.807 101.878 116.861C102.35 116.934 102.803 116.907 103.239 116.825C103.302 116.816 103.375 116.798 103.438 116.78C103.52 116.762 103.602 116.735 103.683 116.716C104.255 116.553 104.808 116.291 105.298 115.883C105.769 115.485 106.196 115.014 106.631 114.579C110.885 110.332 115.129 106.094 119.383 101.847C119.746 101.485 120.118 101.131 120.471 100.76C120.517 100.715 120.571 100.661 120.617 100.615C120.635 100.597 120.653 100.57 120.671 100.543C120.734 100.47 120.816 100.398 120.87 100.326C120.943 100.244 120.988 100.153 121.052 100.063C121.088 100.018 121.115 99.9723 121.152 99.918C121.279 99.7278 121.387 99.5376 121.478 99.3384L121.469 99.3927ZM105.978 113.311C105.524 113.764 105.08 114.235 104.608 114.679C104.545 114.742 104.463 114.797 104.4 114.851C104.327 114.905 104.264 114.969 104.191 115.023C104.091 115.086 103.983 115.141 103.883 115.204C103.828 115.231 103.783 115.268 103.729 115.286C103.647 115.322 103.556 115.349 103.475 115.376C103.393 115.403 103.302 115.44 103.212 115.458C103.166 115.467 103.121 115.476 103.076 115.485C102.25 115.639 101.389 115.44 100.654 114.86L99.9919 114.335C99.9284 114.28 99.8558 114.226 99.7923 114.181C99.7651 114.163 99.747 114.145 99.7198 114.127C98.1598 112.895 96.5998 111.654 95.0398 110.423C92.6363 108.521 90.2237 106.61 87.8202 104.708C87.5753 104.518 87.3395 104.328 87.0947 104.138C84.9905 102.472 82.8863 100.805 80.7821 99.1301C83.3398 96.5764 85.8884 94.0317 88.446 91.478C92.8177 87.1131 97.1802 82.7572 101.552 78.3923C102.377 77.5683 103.203 76.7442 104.028 75.9201C107.257 79.9862 110.486 84.0432 113.705 88.1092C115.528 90.4094 117.351 92.7005 119.174 95.0007C119.283 95.1365 119.401 95.2723 119.51 95.4172C119.637 95.5802 119.764 95.7433 119.891 95.9063C120.417 96.6036 120.571 97.4276 120.408 98.2064C120.226 98.9218 119.755 99.5738 119.193 100.126C115.692 103.622 112.191 107.117 108.69 110.613C107.783 111.518 106.876 112.424 105.969 113.33L105.978 113.311ZM92.2009 64.0661C92.9809 63.3054 94.024 63.3416 94.7223 64.1747C95.0035 64.5098 95.2665 64.863 95.5477 65.2071C96.89 66.9005 98.2323 68.585 99.5747 70.2784C100.772 71.7907 101.978 73.303 103.175 74.8153C100.736 77.2513 98.2958 79.6873 95.8561 82.1233C94.6951 80.4842 93.5342 78.8361 92.3642 77.197C90.523 74.598 88.6819 71.999 86.8407 69.3999C88.6184 67.616 90.3961 65.832 92.2009 64.0751V64.0661ZM85.8521 70.3871C87.2761 72.3884 88.6909 74.3987 90.1149 76.4001C91.7021 78.6368 93.2621 80.8918 94.8675 83.1104C90.6772 87.2942 86.487 91.478 82.2967 95.6617C81.4351 96.522 80.5644 97.3914 79.7028 98.2517C78.2788 97.1197 76.8458 95.9877 75.4219 94.8558C73.3086 93.1805 71.2044 91.5142 69.0912 89.8389C68.683 89.5129 68.4653 89.1054 68.4109 88.6707C68.3837 88.1092 68.683 87.5478 69.1456 87.0769C69.4086 86.8143 69.6716 86.5516 69.9346 86.289C70.3609 85.8634 70.7872 85.4377 71.2135 85.0121C72.4832 83.7443 73.7439 82.4856 75.0137 81.2177C77.4263 78.8089 79.8298 76.4091 82.2423 74.0003C83.4486 72.7959 84.6549 71.5733 85.8611 70.3599L85.8521 70.3871ZM62.8784 75.7662V86.6875C62.1346 85.9449 61.3909 85.2023 60.6472 84.4597C58.9693 82.7844 57.2823 81.1 55.6044 79.4247C55.4593 79.2798 55.3142 79.1349 55.1691 78.9901C56.847 77.4959 58.8967 76.4273 61.137 75.9835C61.7174 75.8658 62.2979 75.8024 62.8784 75.7662ZM51.913 83.4817C52.4663 82.1777 53.2463 80.9914 54.1805 79.959C54.9967 80.7741 55.813 81.589 56.6293 82.4041C58.3072 84.0794 59.9942 85.7638 61.6721 87.4391L61.8988 87.6655H50.9788C51.0514 86.2347 51.3598 84.822 51.9221 83.4817H51.913ZM50.9788 89.051H61.8988C61.2095 89.7393 60.5112 90.4365 59.8219 91.1248C58.0986 92.8454 56.3844 94.5569 54.6612 96.2775C54.4979 96.4405 54.3437 96.5945 54.1805 96.7575C53.6998 96.2232 53.2463 95.6618 52.8563 95.046C51.7226 93.2348 51.1058 91.161 50.9788 89.051ZM55.16 97.7356C56.0035 96.8934 56.847 96.0511 57.6995 95.1999C59.4228 93.4793 61.137 91.7677 62.8602 90.0471L62.8784 90.0291V100.932C60.0123 100.778 57.2823 99.6192 55.16 97.7356ZM64.266 100.941V75.7662C67.8939 75.9835 71.3314 77.7675 73.5898 80.6835C72.7463 81.5257 71.9118 82.3588 71.0684 83.201C70.0072 84.2605 68.9188 85.2838 67.8939 86.3705C67.7488 86.5244 67.6309 86.6784 67.5221 86.8505C67.5221 86.8505 67.5221 86.8505 67.5221 86.8595C67.4223 87.0135 67.3407 87.1855 67.2681 87.3485C67.2591 87.3666 67.2409 87.3848 67.2409 87.4119C67.1865 87.5387 67.1593 87.6655 67.123 87.7923C67.1049 87.8647 67.0777 87.9281 67.0595 88.0006C67.0414 88.073 67.0414 88.1545 67.0323 88.227C67.0142 88.3538 66.996 88.4715 66.996 88.5982C66.996 88.6254 66.9961 88.6616 67.0051 88.6888C67.0051 88.8608 67.0233 89.0238 67.0595 89.1959C67.0595 89.1959 67.0595 89.205 67.0595 89.214C67.1049 89.4042 67.1593 89.5853 67.2409 89.7574C67.2409 89.7755 67.2591 89.7846 67.2681 89.8027C67.3498 89.9657 67.4405 90.1287 67.5584 90.2826C67.5856 90.3188 67.6309 90.355 67.6672 90.3913C67.767 90.509 67.8667 90.6267 67.9846 90.7354C67.9846 90.7354 68.0028 90.7445 68.0119 90.7535C68.3112 91.0071 68.6286 91.2425 68.937 91.487C70.6149 92.8182 72.2928 94.1494 73.9707 95.4806C71.7305 98.6864 68.1479 100.715 64.257 100.932L64.266 100.941Z" fill="#F1F1F1"/>
</g>
</svg>
